REM DIRINDEX 1\2\4\18,1\2\4\19,1\2\5\20,1\2\5\21,1\2\6\22,1\2\7\23,1\2\8\24,1\2\8\25,1\2\9\26,1\2\10\27,1\3\11\28,1\3\11\29,1\3\11\30,1\3\11\31,1\3\12\32,1\3\12\33,1\3\12\34,1\3\12\35,1\3\13\36,1\3\13\37,1\3\14\38,1\3\14\39,1\3\15\40,1\3\15\41,1\3\15\42,1\3\16\43,1\3\16\44,1\3\17\45,1\3\17\46
REM DIRNAME folder01,folder02,folder03,folder04,folder05,folder06,folder07,folder08,folder09,folder10,folder11,folder12,folder13,folder14,folder15,folder16,folder17,folder18,folder19,folder20,folder21,folder22,folder23,folder24,folder25,folder26,folder27,folder28,folder29,folder30,folder31,folder32,folder33,folder34,folder35,folder36,folder37,folder38,folder39,folder40,folder41,folder42,folder43,folder44,folder45,folder46
TITLE ""
FILE "01.mp3" MP3
  TRACK 01 AUDIO
    TITLE "0:"
    INDEX 01 00:00:00
  TRACK 02 AUDIO
    TITLE "18:cjc024_0001"
    INDEX 01 00:00:13
  TRACK 03 AUDIO
    TITLE "0:"
    INDEX 01 00:01:26
  TRACK 04 AUDIO
    TITLE "19:cjc024_0002"
    INDEX 01 00:01:54
  TRACK 05 AUDIO
    TITLE "0:"
    INDEX 01 00:03:55
  TRACK 06 AUDIO
    TITLE "18:cjc024_0003"
    INDEX 01 00:04:56
  TRACK 07 AUDIO
    TITLE "0:"
    INDEX 01 00:05:63
  TRACK 08 AUDIO
    TITLE "19:cjc024_0004"
    INDEX 01 00:06:14
  TRACK 09 AUDIO
    TITLE "0:"
    INDEX 01 00:08:50
  TRACK 10 AUDIO
    TITLE "18:cjc024_0005"
    INDEX 01 00:09:51
  TRACK 11 AUDIO
    TITLE "0:"
    INDEX 01 00:10:61
  TRACK 12 AUDIO
    TITLE "19:cjc024_0006"
    INDEX 01 00:11:11
  TRACK 13 AUDIO
    TITLE "0:"
    INDEX 01 00:13:00
  TRACK 14 AUDIO
    TITLE "18:cjc024_0007"
    INDEX 01 00:14:09
  TRACK 15 AUDIO
    TITLE "0:"
    INDEX 01 00:15:27
  TRACK 16 AUDIO
    TITLE "19:cjc024_0008"
    INDEX 01 00:15:46
  TRACK 17 AUDIO
    TITLE "0:"
    INDEX 01 00:18:05
  TRACK 18 AUDIO
    TITLE "18:cjc024_0009"
    INDEX 01 00:19:03
  TRACK 19 AUDIO
    TITLE "0:"
    INDEX 01 00:20:22
  TRACK 20 AUDIO
    TITLE "19:cjc024_0010"
    INDEX 01 00:20:47
  TRACK 21 AUDIO
    TITLE "0:"
    INDEX 01 00:22:32
  TRACK 22 AUDIO
    TITLE "18:cjc024_0011"
    INDEX 01 00:23:36
  TRACK 23 AUDIO
    TITLE "0:"
    INDEX 01 00:24:51
  TRACK 24 AUDIO
    TITLE "19:cjc024_0012"
    INDEX 01 00:24:72
  TRACK 25 AUDIO
    TITLE "0:"
    INDEX 01 00:27:08
  TRACK 26 AUDIO
    TITLE "18:cjc024_0013"
    INDEX 01 00:28:08
  TRACK 27 AUDIO
    TITLE "0:"
    INDEX 01 00:29:38
  TRACK 28 AUDIO
    TITLE "19:cjc024_0014"
    INDEX 01 00:29:66
  TRACK 29 AUDIO
    TITLE "0:"
    INDEX 01 00:31:65
  TRACK 30 AUDIO
    TITLE "18:cjc024_0015"
    INDEX 01 00:32:60
  TRACK 31 AUDIO
    TITLE "0:"
    INDEX 01 00:33:69
  TRACK 32 AUDIO
    TITLE "19:cjc024_0016"
    INDEX 01 00:34:22
  TRACK 33 AUDIO
    TITLE "0:"
    INDEX 01 00:36:56
  TRACK 34 AUDIO
    TITLE "18:cjc024_0017"
    INDEX 01 00:37:57
  TRACK 35 AUDIO
    TITLE "0:"
    INDEX 01 00:38:49
  TRACK 36 AUDIO
    TITLE "19:cjc024_0018"
    INDEX 01 00:39:00
  TRACK 37 AUDIO
    TITLE "0:"
    INDEX 01 00:41:36
  TRACK 38 AUDIO
    TITLE "18:cjc024_0019"
    INDEX 01 00:42:35
  TRACK 39 AUDIO
    TITLE "0:"
    INDEX 01 00:43:50
  TRACK 40 AUDIO
    TITLE "19:cjc024_0020"
    INDEX 01 00:44:05
  TRACK 41 AUDIO
    TITLE "0:"
    INDEX 01 00:46:00
  TRACK 42 AUDIO
    TITLE "18:cjc024_0021"
    INDEX 01 00:47:05
  TRACK 43 AUDIO
    TITLE "0:"
    INDEX 01 00:48:16
  TRACK 44 AUDIO
    TITLE "19:cjc024_0022"
    INDEX 01 00:48:48
  TRACK 45 AUDIO
    TITLE "0:"
    INDEX 01 00:51:30
  TRACK 46 AUDIO
    TITLE "18:cjc024_0023"
    INDEX 01 00:52:30
  TRACK 47 AUDIO
    TITLE "0:"
    INDEX 01 00:53:31
  TRACK 48 AUDIO
    TITLE "19:cjc024_0024"
    INDEX 01 00:53:57
  TRACK 49 AUDIO
    TITLE "0:"
    INDEX 01 00:55:42
  TRACK 50 AUDIO
    TITLE "18:cjc024_0025"
    INDEX 01 00:56:49
  TRACK 51 AUDIO
    TITLE "0:"
    INDEX 01 00:57:56
  TRACK 52 AUDIO
    TITLE "19:cjc024_0026"
    INDEX 01 00:58:09
  TRACK 53 AUDIO
    TITLE "0:"
    INDEX 01 00:59:51
  TRACK 54 AUDIO
    TITLE "18:cjc024_0027"
    INDEX 01 01:00:60
  TRACK 55 AUDIO
    TITLE "0:"
    INDEX 01 01:01:66
  TRACK 56 AUDIO
    TITLE "19:cjc024_0028"
    INDEX 01 01:02:18
  TRACK 57 AUDIO
    TITLE "0:"
    INDEX 01 01:03:51
  TRACK 58 AUDIO
    TITLE "18:cjc024_0029"
    INDEX 01 01:04:54
  TRACK 59 AUDIO
    TITLE "0:"
    INDEX 01 01:06:04
  TRACK 60 AUDIO
    TITLE "19:cjc024_0030"
    INDEX 01 01:06:30
  TRACK 61 AUDIO
    TITLE "0:"
    INDEX 01 01:08:09
  TRACK 62 AUDIO
    TITLE "18:cjc024_0031"
    INDEX 01 01:09:09
  TRACK 63 AUDIO
    TITLE "0:"
    INDEX 01 01:10:06
  TRACK 64 AUDIO
    TITLE "19:cjc024_0032"
    INDEX 01 01:10:30
  TRACK 65 AUDIO
    TITLE "0:"
    INDEX 01 01:12:24
  TRACK 66 AUDIO
    TITLE "18:cjc024_0033"
    INDEX 01 01:13:22
  TRACK 67 AUDIO
    TITLE "0:"
    INDEX 01 01:14:35
  TRACK 68 AUDIO
    TITLE "19:cjc024_0034"
    INDEX 01 01:14:61
  TRACK 69 AUDIO
    TITLE "0:"
    INDEX 01 01:16:32
  TRACK 70 AUDIO
    TITLE "18:cjc024_0035"
    INDEX 01 01:17:30
  TRACK 71 AUDIO
    TITLE "0:"
    INDEX 01 01:18:41
  TRACK 72 AUDIO
    TITLE "19:cjc024_0036"
    INDEX 01 01:18:66
  TRACK 73 AUDIO
    TITLE "0:"
    INDEX 01 01:20:28
  TRACK 74 AUDIO
    TITLE "18:cjc024_0037"
    INDEX 01 01:21:27
  TRACK 75 AUDIO
    TITLE "0:"
    INDEX 01 01:22:39
  TRACK 76 AUDIO
    TITLE "19:cjc024_0038"
    INDEX 01 01:22:66
  TRACK 77 AUDIO
    TITLE "0:"
    INDEX 01 01:24:53
  TRACK 78 AUDIO
    TITLE "18:cjc024_0039"
    INDEX 01 01:25:57
  TRACK 79 AUDIO
    TITLE "0:"
    INDEX 01 01:26:66
  TRACK 80 AUDIO
    TITLE "19:cjc024_0040"
    INDEX 01 01:27:14
  TRACK 81 AUDIO
    TITLE "0:"
    INDEX 01 01:29:21
  TRACK 82 AUDIO
    TITLE "18:cjc024_0041"
    INDEX 01 01:30:20
  TRACK 83 AUDIO
    TITLE "0:"
    INDEX 01 01:31:36
  TRACK 84 AUDIO
    TITLE "19:cjc024_0042"
    INDEX 01 01:31:61
  TRACK 85 AUDIO
    TITLE "0:"
    INDEX 01 01:34:55
  TRACK 86 AUDIO
    TITLE "18:cjc024_0043"
    INDEX 01 01:35:55
  TRACK 87 AUDIO
    TITLE "0:"
    INDEX 01 01:36:68
  TRACK 88 AUDIO
    TITLE "19:cjc024_0044"
    INDEX 01 01:37:21
  TRACK 89 AUDIO
    TITLE "0:"
    INDEX 01 01:39:31
  TRACK 90 AUDIO
    TITLE "18:cjc024_0045"
    INDEX 01 01:40:31
  TRACK 91 AUDIO
    TITLE "0:"
    INDEX 01 01:41:42
  TRACK 92 AUDIO
    TITLE "19:cjc024_0046"
    INDEX 01 01:41:67
  TRACK 93 AUDIO
    TITLE "0:"
    INDEX 01 01:44:15
  TRACK 94 AUDIO
    TITLE "18:cjc024_0047"
    INDEX 01 01:45:16
  TRACK 95 AUDIO
    TITLE "0:"
    INDEX 01 01:46:27
  TRACK 96 AUDIO
    TITLE "19:cjc024_0048"
    INDEX 01 01:46:53
  TRACK 97 AUDIO
    TITLE "0:"
    INDEX 01 01:48:28
  TRACK 98 AUDIO
    TITLE "18:cjc024_0049"
    INDEX 01 01:49:33
  TRACK 99 AUDIO
    TITLE "0:"
    INDEX 01 01:50:41
  TRACK 100 AUDIO
    TITLE "19:cjc024_0050"
    INDEX 01 01:50:66
  TRACK 101 AUDIO
    TITLE "0:"
    INDEX 01 01:52:44
  TRACK 102 AUDIO
    TITLE "18:cjc024_0051"
    INDEX 01 01:53:43
  TRACK 103 AUDIO
    TITLE "0:"
    INDEX 01 01:54:58
  TRACK 104 AUDIO
    TITLE "19:cjc024_0052"
    INDEX 01 01:55:09
  TRACK 105 AUDIO
    TITLE "0:"
    INDEX 01 01:56:67
  TRACK 106 AUDIO
    TITLE "18:cjc024_0053"
    INDEX 01 01:57:68
  TRACK 107 AUDIO
    TITLE "0:"
    INDEX 01 01:59:10
  TRACK 108 AUDIO
    TITLE "19:cjc024_0054"
    INDEX 01 01:59:32
  TRACK 109 AUDIO
    TITLE "0:"
    INDEX 01 02:02:56
  TRACK 110 AUDIO
    TITLE "18:cjc024_0055"
    INDEX 01 02:03:55
  TRACK 111 AUDIO
    TITLE "0:"
    INDEX 01 02:04:60
  TRACK 112 AUDIO
    TITLE "19:cjc024_0056"
    INDEX 01 02:05:13
  TRACK 113 AUDIO
    TITLE "0:"
    INDEX 01 02:07:02
  TRACK 114 AUDIO
    TITLE "18:cjc024_0057"
    INDEX 01 02:08:03
  TRACK 115 AUDIO
    TITLE "0:"
    INDEX 01 02:09:15
  TRACK 116 AUDIO
    TITLE "19:cjc024_0058"
    INDEX 01 02:09:42
  TRACK 117 AUDIO
    TITLE "0:"
    INDEX 01 02:11:19
  TRACK 118 AUDIO
    TITLE "18:cjc024_0059"
    INDEX 01 02:12:17
  TRACK 119 AUDIO
    TITLE "0:"
    INDEX 01 02:13:24
  TRACK 120 AUDIO
    TITLE "19:cjc024_0060"
    INDEX 01 02:13:50
  TRACK 121 AUDIO
    TITLE "0:"
    INDEX 01 02:15:47
  TRACK 122 AUDIO
    TITLE "18:cjc024_0061"
    INDEX 01 02:16:48
  TRACK 123 AUDIO
    TITLE "0:"
    INDEX 01 02:17:59
  TRACK 124 AUDIO
    TITLE "19:cjc024_0062"
    INDEX 01 02:18:14
  TRACK 125 AUDIO
    TITLE "0:"
    INDEX 01 02:20:07
  TRACK 126 AUDIO
    TITLE "18:cjc024_0063"
    INDEX 01 02:21:06
  TRACK 127 AUDIO
    TITLE "0:"
    INDEX 01 02:22:19
  TRACK 128 AUDIO
    TITLE "19:cjc024_0064"
    INDEX 01 02:22:45
  TRACK 129 AUDIO
    TITLE "0:"
    INDEX 01 02:25:12
  TRACK 130 AUDIO
    TITLE "18:cjc024_0065"
    INDEX 01 02:26:19
  TRACK 131 AUDIO
    TITLE "0:"
    INDEX 01 02:27:24
  TRACK 132 AUDIO
    TITLE "19:cjc024_0066"
    INDEX 01 02:27:48
  TRACK 133 AUDIO
    TITLE "0:"
    INDEX 01 02:30:05
  TRACK 134 AUDIO
    TITLE "18:cjc024_0067"
    INDEX 01 02:31:10
  TRACK 135 AUDIO
    TITLE "0:"
    INDEX 01 02:32:31
  TRACK 136 AUDIO
    TITLE "19:cjc024_0068"
    INDEX 01 02:32:59
  TRACK 137 AUDIO
    TITLE "0:"
    INDEX 01 02:34:52
  TRACK 138 AUDIO
    TITLE "18:cjc024_0069"
    INDEX 01 02:35:53
  TRACK 139 AUDIO
    TITLE "0:"
    INDEX 01 02:36:60
  TRACK 140 AUDIO
    TITLE "19:cjc024_0070"
    INDEX 01 02:37:11
  TRACK 141 AUDIO
    TITLE "0:"
    INDEX 01 02:40:00
  TRACK 142 AUDIO
    TITLE "18:cjc024_0071"
    INDEX 01 02:40:72
  TRACK 143 AUDIO
    TITLE "0:"
    INDEX 01 02:42:10
  TRACK 144 AUDIO
    TITLE "19:cjc024_0072"
    INDEX 01 02:42:36
  TRACK 145 AUDIO
    TITLE "0:"
    INDEX 01 02:45:48
  TRACK 146 AUDIO
    TITLE "18:cjc024_0073"
    INDEX 01 02:46:53
  TRACK 147 AUDIO
    TITLE "0:"
    INDEX 01 02:47:51
  TRACK 148 AUDIO
    TITLE "19:cjc024_0074"
    INDEX 01 02:48:03
  TRACK 149 AUDIO
    TITLE "0:"
    INDEX 01 02:50:04
  TRACK 150 AUDIO
    TITLE "18:cjc024_0075"
    INDEX 01 02:51:03
  TRACK 151 AUDIO
    TITLE "0:"
    INDEX 01 02:52:05
  TRACK 152 AUDIO
    TITLE "19:cjc024_0076"
    INDEX 01 02:52:30
  TRACK 153 AUDIO
    TITLE "0:"
    INDEX 01 02:53:71
  TRACK 154 AUDIO
    TITLE "18:cjc024_0077"
    INDEX 01 02:54:72
  TRACK 155 AUDIO
    TITLE "0:"
    INDEX 01 02:56:08
  TRACK 156 AUDIO
    TITLE "19:cjc024_0078"
    INDEX 01 02:56:38
  TRACK 157 AUDIO
    TITLE "0:"
    INDEX 01 02:58:62
  TRACK 158 AUDIO
    TITLE "18:cjc024_0079"
    INDEX 01 02:59:63
  TRACK 159 AUDIO
    TITLE "0:"
    INDEX 01 03:00:65
  TRACK 160 AUDIO
    TITLE "19:cjc024_0080"
    INDEX 01 03:01:15
  TRACK 161 AUDIO
    TITLE "0:"
    INDEX 01 03:02:64
  TRACK 162 AUDIO
    TITLE "18:cjc024_0081"
    INDEX 01 03:03:65
  TRACK 163 AUDIO
    TITLE "0:"
    INDEX 01 03:04:71
  TRACK 164 AUDIO
    TITLE "19:cjc024_0082"
    INDEX 01 03:05:17
  TRACK 165 AUDIO
    TITLE "0:"
    INDEX 01 03:07:24
  TRACK 166 AUDIO
    TITLE "18:cjc024_0083"
    INDEX 01 03:08:23
  TRACK 167 AUDIO
    TITLE "0:"
    INDEX 01 03:09:23
  TRACK 168 AUDIO
    TITLE "19:cjc024_0084"
    INDEX 01 03:09:52
  TRACK 169 AUDIO
    TITLE "0:"
    INDEX 01 03:11:22
  TRACK 170 AUDIO
    TITLE "18:cjc024_0085"
    INDEX 01 03:12:17
  TRACK 171 AUDIO
    TITLE "0:"
    INDEX 01 03:13:44
  TRACK 172 AUDIO
    TITLE "19:cjc024_0086"
    INDEX 01 03:13:71
  TRACK 173 AUDIO
    TITLE "0:"
    INDEX 01 03:15:68
  TRACK 174 AUDIO
    TITLE "18:cjc024_0087"
    INDEX 01 03:17:03
  TRACK 175 AUDIO
    TITLE "0:"
    INDEX 01 03:18:18
  TRACK 176 AUDIO
    TITLE "19:cjc024_0088"
    INDEX 01 03:18:43
  TRACK 177 AUDIO
    TITLE "0:"
    INDEX 01 03:20:64
  TRACK 178 AUDIO
    TITLE "18:cjc024_0089"
    INDEX 01 03:21:63
  TRACK 179 AUDIO
    TITLE "0:"
    INDEX 01 03:23:01
  TRACK 180 AUDIO
    TITLE "19:cjc024_0090"
    INDEX 01 03:23:27
  TRACK 181 AUDIO
    TITLE "0:"
    INDEX 01 03:25:12
  TRACK 182 AUDIO
    TITLE "18:cjc024_0091"
    INDEX 01 03:26:15
  TRACK 183 AUDIO
    TITLE "0:"
    INDEX 01 03:27:38
  TRACK 184 AUDIO
    TITLE "19:cjc024_0092"
    INDEX 01 03:27:64
  TRACK 185 AUDIO
    TITLE "0:"
    INDEX 01 03:29:72
  TRACK 186 AUDIO
    TITLE "18:cjc024_0093"
    INDEX 01 03:31:01
  TRACK 187 AUDIO
    TITLE "0:"
    INDEX 01 03:32:14
  TRACK 188 AUDIO
    TITLE "19:cjc024_0094"
    INDEX 01 03:32:37
  TRACK 189 AUDIO
    TITLE "0:"
    INDEX 01 03:35:12
  TRACK 190 AUDIO
    TITLE "18:cjc024_0095"
    INDEX 01 03:36:16
  TRACK 191 AUDIO
    TITLE "0:"
    INDEX 01 03:37:27
  TRACK 192 AUDIO
    TITLE "19:cjc024_0096"
    INDEX 01 03:37:52
  TRACK 193 AUDIO
    TITLE "0:"
    INDEX 01 03:39:32
  TRACK 194 AUDIO
    TITLE "18:cjc024_0097"
    INDEX 01 03:40:33
  TRACK 195 AUDIO
    TITLE "0:"
    INDEX 01 03:41:38
  TRACK 196 AUDIO
    TITLE "19:cjc024_0098"
    INDEX 01 03:41:62
  TRACK 197 AUDIO
    TITLE "0:"
    INDEX 01 03:43:41
  TRACK 198 AUDIO
    TITLE "18:cjc024_0099"
    INDEX 01 03:44:47
  TRACK 199 AUDIO
    TITLE "0:"
    INDEX 01 03:45:56
  TRACK 200 AUDIO
    TITLE "19:cjc024_0100"
    INDEX 01 03:46:04
  TRACK 201 AUDIO
    TITLE "0:"
    INDEX 01 03:47:49
  TRACK 202 AUDIO
    TITLE "18:cjc024_0101"
    INDEX 01 03:48:48
  TRACK 203 AUDIO
    TITLE "0:"
    INDEX 01 03:49:59
  TRACK 204 AUDIO
    TITLE "19:cjc024_0102"
    INDEX 01 03:50:08
  TRACK 205 AUDIO
    TITLE "0:"
    INDEX 01 03:51:66
  TRACK 206 AUDIO
    TITLE "18:cjc024_0103"
    INDEX 01 03:52:68
  TRACK 207 AUDIO
    TITLE "0:"
    INDEX 01 03:53:73
  TRACK 208 AUDIO
    TITLE "19:cjc024_0104"
    INDEX 01 03:54:23
  TRACK 209 AUDIO
    TITLE "0:"
    INDEX 01 03:56:20
  TRACK 210 AUDIO
    TITLE "18:cjc024_0105"
    INDEX 01 03:57:22
  TRACK 211 AUDIO
    TITLE "0:"
    INDEX 01 03:58:23
  TRACK 212 AUDIO
    TITLE "19:cjc024_0106"
    INDEX 01 03:58:49
  TRACK 213 AUDIO
    TITLE "0:"
    INDEX 01 04:01:00
  TRACK 214 AUDIO
    TITLE "18:cjc024_0107"
    INDEX 01 04:01:74
  TRACK 215 AUDIO
    TITLE "0:"
    INDEX 01 04:03:07
  TRACK 216 AUDIO
    TITLE "19:cjc024_0108"
    INDEX 01 04:03:34
  TRACK 217 AUDIO
    TITLE "0:"
    INDEX 01 04:05:08
  TRACK 218 AUDIO
    TITLE "18:cjc024_0109"
    INDEX 01 04:06:09
  TRACK 219 AUDIO
    TITLE "0:"
    INDEX 01 04:07:14
  TRACK 220 AUDIO
    TITLE "19:cjc024_0110"
    INDEX 01 04:07:42
  TRACK 221 AUDIO
    TITLE "0:"
    INDEX 01 04:09:29
  TRACK 222 AUDIO
    TITLE "18:cjc024_0111"
    INDEX 01 04:10:36
  TRACK 223 AUDIO
    TITLE "0:"
    INDEX 01 04:11:30
  TRACK 224 AUDIO
    TITLE "19:cjc024_0112"
    INDEX 01 04:11:55
  TRACK 225 AUDIO
    TITLE "0:"
    INDEX 01 04:14:32
  TRACK 226 AUDIO
    TITLE "18:cjc024_0113"
    INDEX 01 04:15:31
  TRACK 227 AUDIO
    TITLE "0:"
    INDEX 01 04:16:45
  TRACK 228 AUDIO
    TITLE "19:cjc024_0114"
    INDEX 01 04:16:70
  TRACK 229 AUDIO
    TITLE "0:"
    INDEX 01 04:18:38
  TRACK 230 AUDIO
    TITLE "18:cjc024_0115"
    INDEX 01 04:19:37
  TRACK 231 AUDIO
    TITLE "0:"
    INDEX 01 04:20:58
  TRACK 232 AUDIO
    TITLE "19:cjc024_0116"
    INDEX 01 04:21:09
  TRACK 233 AUDIO
    TITLE "0:"
    INDEX 01 04:23:37
  TRACK 234 AUDIO
    TITLE "18:cjc024_0117"
    INDEX 01 04:24:36
  TRACK 235 AUDIO
    TITLE "0:"
    INDEX 01 04:25:40
  TRACK 236 AUDIO
    TITLE "19:cjc024_0118"
    INDEX 01 04:25:69
  TRACK 237 AUDIO
    TITLE "0:"
    INDEX 01 04:27:42
  TRACK 238 AUDIO
    TITLE "18:cjc024_0119"
    INDEX 01 04:28:46
  TRACK 239 AUDIO
    TITLE "0:"
    INDEX 01 04:29:59
  TRACK 240 AUDIO
    TITLE "19:cjc024_0120"
    INDEX 01 04:30:07
  TRACK 241 AUDIO
    TITLE "0:"
    INDEX 01 04:31:52
  TRACK 242 AUDIO
    TITLE "18:cjc024_0121"
    INDEX 01 04:32:53
  TRACK 243 AUDIO
    TITLE "0:"
    INDEX 01 04:33:57
  TRACK 244 AUDIO
    TITLE "19:cjc024_0122"
    INDEX 01 04:34:13
  TRACK 245 AUDIO
    TITLE "0:"
    INDEX 01 04:36:24
  TRACK 246 AUDIO
    TITLE "18:cjc024_0123"
    INDEX 01 04:37:33
  TRACK 247 AUDIO
    TITLE "0:"
    INDEX 01 04:38:48
  TRACK 248 AUDIO
    TITLE "19:cjc024_0124"
    INDEX 01 04:39:06
  TRACK 249 AUDIO
    TITLE "0:"
    INDEX 01 04:40:65
  TRACK 250 AUDIO
    TITLE "18:cjc024_0125"
    INDEX 01 04:41:74
  TRACK 251 AUDIO
    TITLE "0:"
    INDEX 01 04:43:20
  TRACK 252 AUDIO
    TITLE "19:cjc024_0126"
    INDEX 01 04:43:45
  TRACK 253 AUDIO
    TITLE "0:"
    INDEX 01 04:45:25
  TRACK 254 AUDIO
    TITLE "18:cjc024_0127"
    INDEX 01 04:46:40
  TRACK 255 AUDIO
    TITLE "0:"
    INDEX 01 04:47:41
  TRACK 256 AUDIO
    TITLE "19:cjc024_0128"
    INDEX 01 04:47:65
  TRACK 257 AUDIO
    TITLE "0:"
    INDEX 01 04:49:22
  TRACK 258 AUDIO
    TITLE "18:cjc024_0129"
    INDEX 01 04:50:24
  TRACK 259 AUDIO
    TITLE "0:"
    INDEX 01 04:51:49
  TRACK 260 AUDIO
    TITLE "19:cjc024_0130"
    INDEX 01 04:52:01
  TRACK 261 AUDIO
    TITLE "0:"
    INDEX 01 04:54:08
  TRACK 262 AUDIO
    TITLE "18:cjc024_0131"
    INDEX 01 04:55:09
  TRACK 263 AUDIO
    TITLE "0:"
    INDEX 01 04:56:24
  TRACK 264 AUDIO
    TITLE "19:cjc024_0132"
    INDEX 01 04:56:42
  TRACK 265 AUDIO
    TITLE "0:"
    INDEX 01 04:58:23
  TRACK 266 AUDIO
    TITLE "18:cjc024_0133"
    INDEX 01 04:59:23
  TRACK 267 AUDIO
    TITLE "0:"
    INDEX 01 05:00:32
  TRACK 268 AUDIO
    TITLE "19:cjc024_0134"
    INDEX 01 05:00:60
  TRACK 269 AUDIO
    TITLE "0:"
    INDEX 01 05:02:43
  TRACK 270 AUDIO
    TITLE "18:cjc024_0135"
    INDEX 01 05:03:46
  TRACK 271 AUDIO
    TITLE "0:"
    INDEX 01 05:04:40
  TRACK 272 AUDIO
    TITLE "19:cjc024_0136"
    INDEX 01 05:04:63
  TRACK 273 AUDIO
    TITLE "0:"
    INDEX 01 05:06:33
  TRACK 274 AUDIO
    TITLE "18:cjc024_0137"
    INDEX 01 05:07:32
  TRACK 275 AUDIO
    TITLE "0:"
    INDEX 01 05:08:47
  TRACK 276 AUDIO
    TITLE "19:cjc024_0138"
    INDEX 01 05:08:73
  TRACK 277 AUDIO
    TITLE "0:"
    INDEX 01 05:10:42
  TRACK 278 AUDIO
    TITLE "18:cjc024_0139"
    INDEX 01 05:11:40
  TRACK 279 AUDIO
    TITLE "0:"
    INDEX 01 05:12:53
  TRACK 280 AUDIO
    TITLE "19:cjc024_0140"
    INDEX 01 05:13:03
  TRACK 281 AUDIO
    TITLE "0:"
    INDEX 01 05:15:26
  TRACK 282 AUDIO
    TITLE "18:cjc024_0141"
    INDEX 01 05:16:25
  TRACK 283 AUDIO
    TITLE "0:"
    INDEX 01 05:17:33
  TRACK 284 AUDIO
    TITLE "19:cjc024_0142"
    INDEX 01 05:17:56
  TRACK 285 AUDIO
    TITLE "0:"
    INDEX 01 05:20:15
  TRACK 286 AUDIO
    TITLE "18:cjc024_0143"
    INDEX 01 05:21:17
  TRACK 287 AUDIO
    TITLE "0:"
    INDEX 01 05:22:24
  TRACK 288 AUDIO
    TITLE "19:cjc024_0144"
    INDEX 01 05:22:47
  TRACK 289 AUDIO
    TITLE "0:"
    INDEX 01 05:24:19
  TRACK 290 AUDIO
    TITLE "18:cjc024_0145"
    INDEX 01 05:25:18
  TRACK 291 AUDIO
    TITLE "0:"
    INDEX 01 05:26:55
  TRACK 292 AUDIO
    TITLE "19:cjc024_0146"
    INDEX 01 05:27:05
  TRACK 293 AUDIO
    TITLE "0:"
    INDEX 01 05:29:12
  TRACK 294 AUDIO
    TITLE "18:cjc024_0147"
    INDEX 01 05:30:12
  TRACK 295 AUDIO
    TITLE "0:"
    INDEX 01 05:31:27
  TRACK 296 AUDIO
    TITLE "19:cjc024_0148"
    INDEX 01 05:31:50
  TRACK 297 AUDIO
    TITLE "0:"
    INDEX 01 05:33:20
  TRACK 298 AUDIO
    TITLE "18:cjc024_0149"
    INDEX 01 05:34:21
  TRACK 299 AUDIO
    TITLE "0:"
    INDEX 01 05:35:40
  TRACK 300 AUDIO
    TITLE "19:cjc024_0150"
    INDEX 01 05:35:66
  TRACK 301 AUDIO
    TITLE "0:"
    INDEX 01 05:37:51
  TRACK 302 AUDIO
    TITLE "18:cjc024_0151"
    INDEX 01 05:38:52
  TRACK 303 AUDIO
    TITLE "0:"
    INDEX 01 05:39:73
  TRACK 304 AUDIO
    TITLE "19:cjc024_0152"
    INDEX 01 05:40:26
  TRACK 305 AUDIO
    TITLE "0:"
    INDEX 01 05:42:62
  TRACK 306 AUDIO
    TITLE "18:cjc024_0153"
    INDEX 01 05:43:61
  TRACK 307 AUDIO
    TITLE "0:"
    INDEX 01 05:44:71
  TRACK 308 AUDIO
    TITLE "19:cjc024_0154"
    INDEX 01 05:45:21
  TRACK 309 AUDIO
    TITLE "0:"
    INDEX 01 05:47:39
  TRACK 310 AUDIO
    TITLE "18:cjc024_0155"
    INDEX 01 05:48:37
  TRACK 311 AUDIO
    TITLE "0:"
    INDEX 01 05:49:52
  TRACK 312 AUDIO
    TITLE "19:cjc024_0156"
    INDEX 01 05:50:01
  TRACK 313 AUDIO
    TITLE "0:"
    INDEX 01 05:51:49
  TRACK 314 AUDIO
    TITLE "18:cjc024_0157"
    INDEX 01 05:52:52
  TRACK 315 AUDIO
    TITLE "0:"
    INDEX 01 05:53:64
  TRACK 316 AUDIO
    TITLE "19:cjc024_0158"
    INDEX 01 05:54:12
  TRACK 317 AUDIO
    TITLE "0:"
    INDEX 01 05:55:59
  TRACK 318 AUDIO
    TITLE "18:cjc024_0159"
    INDEX 01 05:56:58
  TRACK 319 AUDIO
    TITLE "0:"
    INDEX 01 05:58:02
  TRACK 320 AUDIO
    TITLE "19:cjc024_0160"
    INDEX 01 05:58:26
  TRACK 321 AUDIO
    TITLE "0:"
    INDEX 01 06:00:26
  TRACK 322 AUDIO
    TITLE "18:cjc024_0161"
    INDEX 01 06:01:24
  TRACK 323 AUDIO
    TITLE "0:"
    INDEX 01 06:02:31
  TRACK 324 AUDIO
    TITLE "19:cjc024_0162"
    INDEX 01 06:02:63
  TRACK 325 AUDIO
    TITLE "0:"
    INDEX 01 06:04:36
  TRACK 326 AUDIO
    TITLE "18:cjc024_0163"
    INDEX 01 06:05:35
  TRACK 327 AUDIO
    TITLE "0:"
    INDEX 01 06:06:51
  TRACK 328 AUDIO
    TITLE "19:cjc024_0164"
    INDEX 01 06:07:03
  TRACK 329 AUDIO
    TITLE "0:"
    INDEX 01 06:09:45
  TRACK 330 AUDIO
    TITLE "18:cjc024_0165"
    INDEX 01 06:10:44
  TRACK 331 AUDIO
    TITLE "0:"
    INDEX 01 06:11:60
  TRACK 332 AUDIO
    TITLE "19:cjc024_0166"
    INDEX 01 06:12:10
  TRACK 333 AUDIO
    TITLE "0:"
    INDEX 01 06:13:57
  TRACK 334 AUDIO
    TITLE "18:cjc024_0167"
    INDEX 01 06:14:56
  TRACK 335 AUDIO
    TITLE "0:"
    INDEX 01 06:15:46
  TRACK 336 AUDIO
    TITLE "19:cjc024_0168"
    INDEX 01 06:16:00
  TRACK 337 AUDIO
    TITLE "0:"
    INDEX 01 06:17:35
  TRACK 338 AUDIO
    TITLE "18:cjc024_0169"
    INDEX 01 06:18:36
  TRACK 339 AUDIO
    TITLE "0:"
    INDEX 01 06:19:32
  TRACK 340 AUDIO
    TITLE "19:cjc024_0170"
    INDEX 01 06:19:59
  TRACK 341 AUDIO
    TITLE "0:"
    INDEX 01 06:21:44
  TRACK 342 AUDIO
    TITLE "18:cjc024_0171"
    INDEX 01 06:22:46
  TRACK 343 AUDIO
    TITLE "0:"
    INDEX 01 06:23:57
  TRACK 344 AUDIO
    TITLE "19:cjc024_0172"
    INDEX 01 06:24:07
  TRACK 345 AUDIO
    TITLE "0:"
    INDEX 01 06:25:48
  TRACK 346 AUDIO
    TITLE "18:cjc024_0173"
    INDEX 01 06:26:47
  TRACK 347 AUDIO
    TITLE "0:"
    INDEX 01 06:27:59
  TRACK 348 AUDIO
    TITLE "19:cjc024_0174"
    INDEX 01 06:28:07
  TRACK 349 AUDIO
    TITLE "0:"
    INDEX 01 06:29:57
  TRACK 350 AUDIO
    TITLE "18:cjc024_0175"
    INDEX 01 06:30:57
  TRACK 351 AUDIO
    TITLE "0:"
    INDEX 01 06:32:11
  TRACK 352 AUDIO
    TITLE "19:cjc024_0176"
    INDEX 01 06:32:34
  TRACK 353 AUDIO
    TITLE "0:"
    INDEX 01 06:34:72
  TRACK 354 AUDIO
    TITLE "18:cjc024_0177"
    INDEX 01 06:35:68
  TRACK 355 AUDIO
    TITLE "0:"
    INDEX 01 06:37:00
  TRACK 356 AUDIO
    TITLE "19:cjc024_0178"
    INDEX 01 06:37:26
  TRACK 357 AUDIO
    TITLE "0:"
    INDEX 01 06:39:28
  TRACK 358 AUDIO
    TITLE "18:cjc024_0179"
    INDEX 01 06:40:28
  TRACK 359 AUDIO
    TITLE "0:"
    INDEX 01 06:41:33
  TRACK 360 AUDIO
    TITLE "19:cjc024_0180"
    INDEX 01 06:41:57
  TRACK 361 AUDIO
    TITLE "0:"
    INDEX 01 06:43:26
  TRACK 362 AUDIO
    TITLE "18:cjc024_0181"
    INDEX 01 06:44:24
  TRACK 363 AUDIO
    TITLE "0:"
    INDEX 01 06:45:37
  TRACK 364 AUDIO
    TITLE "19:cjc024_0182"
    INDEX 01 06:45:62
  TRACK 365 AUDIO
    TITLE "0:"
    INDEX 01 06:47:50
  TRACK 366 AUDIO
    TITLE "18:cjc024_0183"
    INDEX 01 06:48:51
  TRACK 367 AUDIO
    TITLE "0:"
    INDEX 01 06:49:66
  TRACK 368 AUDIO
    TITLE "19:cjc024_0184"
    INDEX 01 06:50:15
  TRACK 369 AUDIO
    TITLE "0:"
    INDEX 01 06:51:73
  TRACK 370 AUDIO
    TITLE "18:cjc024_0185"
    INDEX 01 06:52:72
  TRACK 371 AUDIO
    TITLE "0:"
    INDEX 01 06:54:08
  TRACK 372 AUDIO
    TITLE "19:cjc024_0186"
    INDEX 01 06:54:36
  TRACK 373 AUDIO
    TITLE "0:"
    INDEX 01 06:56:48
  TRACK 374 AUDIO
    TITLE "18:cjc024_0187"
    INDEX 01 06:57:48
  TRACK 375 AUDIO
    TITLE "0:"
    INDEX 01 06:58:57
  TRACK 376 AUDIO
    TITLE "19:cjc024_0188"
    INDEX 01 06:59:06
  TRACK 377 AUDIO
    TITLE "0:"
    INDEX 01 07:00:54
  TRACK 378 AUDIO
    TITLE "18:cjc024_0189"
    INDEX 01 07:01:54
  TRACK 379 AUDIO
    TITLE "0:"
    INDEX 01 07:02:57
  TRACK 380 AUDIO
    TITLE "19:cjc024_0190"
    INDEX 01 07:03:07
  TRACK 381 AUDIO
    TITLE "0:"
    INDEX 01 07:04:64
  TRACK 382 AUDIO
    TITLE "18:cjc024_0191"
    INDEX 01 07:05:65
  TRACK 383 AUDIO
    TITLE "0:"
    INDEX 01 07:07:07
  TRACK 384 AUDIO
    TITLE "19:cjc024_0192"
    INDEX 01 07:07:33
  TRACK 385 AUDIO
    TITLE "0:"
    INDEX 01 07:09:59
  TRACK 386 AUDIO
    TITLE "18:cjc024_0193"
    INDEX 01 07:10:58
  TRACK 387 AUDIO
    TITLE "0:"
    INDEX 01 07:11:64
  TRACK 388 AUDIO
    TITLE "19:cjc024_0194"
    INDEX 01 07:12:12
  TRACK 389 AUDIO
    TITLE "0:"
    INDEX 01 07:14:58
  TRACK 390 AUDIO
    TITLE "18:cjc024_0195"
    INDEX 01 07:15:58
  TRACK 391 AUDIO
    TITLE "0:"
    INDEX 01 07:16:63
  TRACK 392 AUDIO
    TITLE "19:cjc024_0196"
    INDEX 01 07:17:13
  TRACK 393 AUDIO
    TITLE "0:"
    INDEX 01 07:19:40
  TRACK 394 AUDIO
    TITLE "18:cjc024_0197"
    INDEX 01 07:20:41
  TRACK 395 AUDIO
    TITLE "0:"
    INDEX 01 07:21:58
  TRACK 396 AUDIO
    TITLE "19:cjc024_0198"
    INDEX 01 07:22:09
  TRACK 397 AUDIO
    TITLE "0:"
    INDEX 01 07:24:19
  TRACK 398 AUDIO
    TITLE "18:cjc024_0199"
    INDEX 01 07:25:21
  TRACK 399 AUDIO
    TITLE "0:"
    INDEX 01 07:26:36
  TRACK 400 AUDIO
    TITLE "19:cjc024_0200"
    INDEX 01 07:26:59
  TRACK 401 AUDIO
    TITLE "0:"
    INDEX 01 07:28:31
